<svg width="22" height="22" viewBox="0 0 22 22" fill="none" xmlns="http://www.w3.org/2000/svg">
<g clip-path="url(#clip0_76_762)">
<path fill-rule="evenodd" clip-rule="evenodd" d="M16.5 6.875H5.5C5.11981 6.875 4.8125 6.56769 4.8125 6.1875C4.8125 5.808 5.11981 5.5 5.5 5.5H16.5C16.8802 5.5 17.1875 5.808 17.1875 6.1875C17.1875 6.56769 16.8802 6.875 16.5 6.875ZM16.5 11H5.5C5.11981 11 4.8125 10.6927 4.8125 10.3125C4.8125 9.933 5.11981 9.625 5.5 9.625H16.5C16.8802 9.625 17.1875 9.933 17.1875 10.3125C17.1875 10.6927 16.8802 11 16.5 11ZM16.5 15.125H5.5C5.11981 15.125 4.8125 14.8177 4.8125 14.4375C4.8125 14.058 5.11981 13.75 5.5 13.75H16.5C16.8802 13.75 17.1875 14.058 17.1875 14.4375C17.1875 14.8177 16.8802 15.125 16.5 15.125ZM19.25 0H2.75C1.24162 0 0 1.35369 0 2.86344V19.2658C0 20.7762 1.22306 22 2.73212 22H19.1242C20.6332 22 22 20.7598 22 19.25V2.75C22 1.24025 20.7584 0 19.25 0Z" fill="black" fill-opacity="0.76"/>
</g>
<defs>
<clipPath id="clip0_76_762">
<rect width="22" height="22" fill="white"/>
</clipPath>
</defs>
</svg>
