<svg width="40" height="40" viewBox="0 0 40 40" fill="none" xmlns="http://www.w3.org/2000/svg">
<path fill-rule="evenodd" clip-rule="evenodd" d="M22 14C22 12.8954 21.1046 12 20 12C18.8954 12 18 12.8954 18 14V18H14C12.8954 18 12 18.8954 12 20C12 21.1046 12.8954 22 14 22H18V26C18 27.1046 18.8954 28 20 28C21.1046 28 22 27.1046 22 26V22H26C27.1046 22 28 21.1046 28 20C28 18.8954 27.1046 18 26 18H22V14ZM0 20C0 8.9543 8.9543 0 20 0C31.0456 0 40 8.9543 40 20C40 31.0456 31.0456 40 20 40C8.9543 40 0 31.0456 0 20Z" fill="black" fill-opacity="0.82"/>
</svg>
