<svg width="26" height="26" viewBox="0 0 26 26" fill="none" xmlns="http://www.w3.org/2000/svg">
<g clip-path="url(#clip0_76_751)">
<path d="M26 0H0V26H26V0Z" fill="white"/>
<path fill-rule="evenodd" clip-rule="evenodd" d="M14.0832 9.75002C14.0832 9.15172 13.5982 8.66669 12.9998 8.66669C12.4015 8.66669 11.9165 9.15172 11.9165 9.75002V11.9167H9.74984C9.15153 11.9167 8.6665 12.4017 8.6665 13C8.6665 13.5983 9.15153 14.0834 9.74984 14.0834H11.9165V16.25C11.9165 16.8483 12.4015 17.3334 12.9998 17.3334C13.5982 17.3334 14.0832 16.8483 14.0832 16.25V14.0834H16.2498C16.8482 14.0834 17.3332 13.5983 17.3332 13C17.3332 12.4017 16.8482 11.9167 16.2498 11.9167H14.0832V9.75002ZM2.1665 13C2.1665 7.01693 7.01675 2.16669 12.9998 2.16669C18.9829 2.16669 23.8332 7.01693 23.8332 13C23.8332 18.9831 18.9829 23.8334 12.9998 23.8334C7.01675 23.8334 2.1665 18.9831 2.1665 13Z" fill="black" fill-opacity="0.82"/>
</g>
<defs>
<clipPath id="clip0_76_751">
<rect width="26" height="26" fill="white"/>
</clipPath>
</defs>
</svg>
