<svg width="26" height="26" viewBox="0 0 26 26" fill="none" xmlns="http://www.w3.org/2000/svg">
<g clip-path="url(#clip0_76_524)">
<path d="M5.66004 14.7295L13.3116 23.0706C13.93 23.7995 13.8404 24.8917 13.1114 25.5101C12.3825 26.1285 11.2903 26.0388 10.672 25.3099L0.49683 14.2178C0.350515 14.0708 0.231951 13.8986 0.146845 13.7094C0.0410117 13.4743 -0.0108429 13.2185 -0.00491438 12.9607L-0.00488899 12.9591C0.00100252 12.7019 0.0640106 12.4492 0.179574 12.2194C0.190811 12.1971 0.202528 12.1751 0.214714 12.1534C0.285236 12.0272 0.371417 11.9104 0.471211 11.8059L10.9169 0.536071C11.5667 -0.16499 12.6618 -0.206529 13.3628 0.443243C14.0638 1.09301 14.1054 2.18811 13.4556 2.88915L5.68952 11.268H24.2363C25.1922 11.268 25.9671 12.0428 25.9671 12.9987C25.9671 13.9546 25.1922 14.7295 24.2363 14.7295H5.66004V14.7295Z" fill="black"/>
</g>
<defs>
<clipPath id="clip0_76_524">
<rect width="26" height="26" fill="white"/>
</clipPath>
</defs>
</svg>
