<svg width="29" height="29" viewBox="0 0 29 29" fill="none" xmlns="http://www.w3.org/2000/svg">
<path fill-rule="evenodd" clip-rule="evenodd" d="M9.71842 6.25397C10.3862 5.74104 11.1764 5.35562 12.0998 5.11658C12.0889 5.02367 12.0833 4.92915 12.0833 4.83333C12.0833 3.49864 13.1654 2.41666 14.5 2.41666C15.8347 2.41666 16.9167 3.49864 16.9167 4.83333C16.9167 4.92915 16.9111 5.02367 16.9002 5.11658C17.8236 5.35562 18.6139 5.74104 19.2816 6.25397C20.4607 7.1596 21.1435 8.3749 21.5476 9.58646C21.9486 10.7891 22.0934 12.0422 22.164 13.0977C22.1926 13.5262 22.2099 13.9382 22.2251 14.3015L22.2355 14.5465C22.2545 14.9826 22.2732 15.3076 22.3053 15.548C22.5418 17.3142 22.8353 18.5531 23.2529 19.5437C23.6611 20.5119 24.2084 21.2911 25.0211 22.1039C25.3667 22.4495 25.4701 22.9692 25.283 23.4208C25.096 23.8723 24.6554 24.1667 24.1667 24.1667H16.5934C16.799 24.5222 16.9167 24.9348 16.9167 25.375C16.9167 26.7097 15.8347 27.7917 14.5 27.7917C13.1654 27.7917 12.0833 26.7097 12.0833 25.375C12.0833 24.9348 12.201 24.5222 12.4067 24.1667H4.83337C4.34465 24.1667 3.90404 23.8723 3.71702 23.4208C3.52999 22.9692 3.63336 22.4495 3.97895 22.1039C4.79339 21.2895 5.33914 20.5159 5.74627 19.5519C6.16298 18.5651 6.45661 17.3269 6.69469 15.548C6.72686 15.3076 6.74558 14.9826 6.76458 14.5465L6.77497 14.3015C6.79017 13.9382 6.8074 13.5262 6.83607 13.0977C6.90671 12.0422 7.05136 10.7891 7.45247 9.58646C7.85654 8.3749 8.53935 7.1596 9.71842 6.25397ZM7.333 21.75C7.57103 21.3562 7.7833 20.9402 7.97255 20.4921C8.5101 19.2193 8.83971 17.7387 9.09 15.8687C9.13869 15.5048 9.16053 15.0747 9.17896 14.6516L9.19004 14.3906C9.20518 14.0294 9.2209 13.6544 9.24735 13.259C9.31317 12.2755 9.44085 11.263 9.74499 10.351C10.0462 9.44802 10.5015 8.69977 11.1905 8.17051C11.8717 7.64733 12.8957 7.25 14.5 7.25C16.1044 7.25 17.1284 7.64733 17.8095 8.17051C18.4986 8.69977 18.9539 9.44802 19.255 10.351C19.5592 11.263 19.6869 12.2755 19.7527 13.259C19.7792 13.6544 19.7949 14.0294 19.81 14.3906L19.8211 14.6516C19.8395 15.0747 19.8614 15.5048 19.9101 15.8687C20.1589 17.7275 20.4885 19.2073 21.026 20.4823C21.2163 20.9336 21.4298 21.3529 21.6695 21.75H7.333Z" fill="black"/>
</svg>
