<svg width="40" height="40" viewBox="0 0 40 40" fill="none" xmlns="http://www.w3.org/2000/svg">
<path fill-rule="evenodd" clip-rule="evenodd" d="M0 20C0 8.9543 8.9543 0 20 0C31.0456 0 40 8.9543 40 20C40 31.0456 31.0456 40 20 40C8.9543 40 0 31.0456 0 20ZM14 19C14 16.2386 16.2386 14 19 14C21.7614 14 24 16.2386 24 19C24 21.7614 21.7614 24 19 24C16.2386 24 14 21.7614 14 19ZM19 10C14.0294 10 10 14.0294 10 19C10 23.9706 14.0294 28 19 28C20.761 28 22.404 27.4942 23.7914 26.62L26.5858 29.4142C27.3668 30.1952 28.6332 30.1952 29.4142 29.4142C30.1952 28.6332 30.1952 27.3668 29.4142 26.5858L26.62 23.7914C27.4942 22.404 28 20.761 28 19C28 14.0294 23.9706 10 19 10Z" fill="#323232"/>
</svg>
