<svg width="187" height="139" viewBox="0 0 187 139" fill="none" xmlns="http://www.w3.org/2000/svg">
<g clip-path="url(#clip0_55_31)">
<path d="M44.4377 45.7777V46.8052H16.2909C14.1516 46.8052 12.0332 47.2264 10.0567 48.0449C8.08021 48.8634 6.28433 50.063 4.77158 51.5754C3.25883 53.0878 2.05885 54.8833 1.24014 56.8593C0.421431 58.8353 3.07137e-05 60.9532 0 63.0921L0 122.713C6.2026e-05 127.032 1.71638 131.175 4.7714 134.229C7.82642 137.284 11.9699 139 16.2904 139H170.709C175.03 139 179.173 137.284 182.228 134.23C185.284 131.175 187 127.033 187 122.713V63.0918C187 58.7722 185.284 54.6294 182.229 51.575C179.173 48.5205 175.03 46.8045 170.709 46.8045L64.4735 46.8045V45.777L44.4377 45.7777Z" fill="#090814"/>
<path d="M16.4051 50.2715L170.596 50.2715C173.819 50.2688 176.912 51.5464 179.194 53.8234C181.475 56.1004 182.759 59.1902 182.761 62.4133V122.343C182.764 125.566 181.485 128.659 179.207 130.94C176.929 133.221 173.837 134.504 170.613 134.506H16.4051C14.8085 134.508 13.2274 134.194 11.7519 133.585C10.2764 132.975 8.93555 132.08 7.8058 130.952C6.67605 129.825 5.77957 128.485 5.16753 127.011C4.5555 125.537 4.23991 123.956 4.23877 122.36V115.075C5.11637 115.433 6.06854 115.57 7.0114 115.473C7.95426 115.376 8.85885 115.049 9.64547 114.52C10.4321 113.992 11.0766 113.278 11.5222 112.442C11.9677 111.605 12.2007 110.672 12.2006 109.724L12.2006 75.5675C12.2008 74.6199 11.9678 73.6867 11.5222 72.8504C11.0767 72.014 10.4322 71.3 9.64557 70.7714C8.85894 70.2427 7.95433 69.9156 7.01146 69.8189C6.06858 69.7222 5.11639 69.8588 4.23877 70.2167L4.23877 62.435C4.23733 60.8391 4.55031 59.2585 5.15984 57.7835C5.76937 56.3085 6.66351 54.968 7.79122 53.8385C8.91893 52.709 10.2581 51.8126 11.7323 51.2006C13.2065 50.5885 14.7869 50.2728 16.3831 50.2713H16.4049L16.4051 50.2715Z" fill="white"/>
<path d="M116.339 97.6922H70.9598C70.165 97.6913 69.403 97.3752 68.841 96.8133C68.279 96.2514 67.9628 95.4896 67.9619 94.6949V93.2038C67.9628 92.4092 68.279 91.6473 68.841 91.0854C69.403 90.5236 70.165 90.2075 70.9598 90.2065H116.339C117.134 90.2075 117.896 90.5236 118.458 91.0854C119.02 91.6473 119.336 92.4092 119.337 93.2038V94.6956C119.336 95.4903 119.02 96.2521 118.458 96.814C117.896 97.3759 117.134 97.692 116.339 97.6929V97.6922Z" fill="#F0F0F0"/>
<path d="M116.19 97.6922H70.8099C69.9754 97.6913 69.1753 97.3594 68.5851 96.7694C67.995 96.1794 67.663 95.3794 67.6621 94.5451V93.0532C67.6631 92.2188 67.9951 91.4189 68.5852 90.8289C69.1753 90.2389 69.9754 89.9071 70.8099 89.9061H116.19C117.024 89.9071 117.824 90.2389 118.414 90.8289C119.004 91.4189 119.336 92.2188 119.337 93.0532V94.5451C119.336 95.3794 119.004 96.1793 118.414 96.7693C117.824 97.3593 117.024 97.6912 116.19 97.6922ZM70.8099 90.5054C70.134 90.5059 69.4858 90.7746 69.0078 91.2524C68.5299 91.7303 68.2611 92.3783 68.2606 93.0541V94.546C68.2611 95.2218 68.5299 95.8698 69.0078 96.3477C69.4858 96.8256 70.134 97.0943 70.8099 97.0948H116.19C116.865 97.0943 117.514 96.8256 117.992 96.3477C118.47 95.8698 118.738 95.2218 118.739 94.546V93.0541C118.738 92.3783 118.47 91.7303 117.992 91.2524C117.514 90.7746 116.865 90.5059 116.19 90.5054H70.8099Z" fill="#3F3D56"/>
<path d="M116.189 109.154H70.8099C70.0151 109.153 69.2531 108.837 68.6911 108.275C68.1291 107.713 67.8129 106.951 67.812 106.157V104.664C67.8129 103.87 68.1291 103.108 68.6911 102.546C69.2531 101.984 70.0151 101.668 70.8099 101.667H116.189C116.984 101.668 117.746 101.984 118.308 102.546C118.87 103.108 119.186 103.87 119.187 104.664V106.156C119.187 106.951 118.87 107.713 118.308 108.275C117.746 108.837 116.984 109.153 116.189 109.154Z" fill="#F0F0F0"/>
<path d="M116.19 109.304H70.8099C69.9754 109.303 69.1753 108.971 68.5851 108.381C67.995 107.791 67.663 106.991 67.6621 106.157V104.665C67.6631 103.831 67.9951 103.031 68.5852 102.441C69.1753 101.851 69.9754 101.519 70.8099 101.518H116.19C117.024 101.519 117.824 101.851 118.414 102.441C119.004 103.031 119.336 103.831 119.337 104.665V106.157C119.336 106.991 119.004 107.791 118.414 108.381C117.824 108.971 117.024 109.303 116.19 109.304ZM70.8099 102.117C70.134 102.118 69.4858 102.386 69.0078 102.864C68.5299 103.342 68.2611 103.99 68.2606 104.666V106.158C68.2611 106.834 68.5299 107.482 69.0078 107.96C69.4858 108.437 70.134 108.706 70.8099 108.707H116.19C116.865 108.706 117.514 108.437 117.992 107.96C118.47 107.482 118.738 106.834 118.739 106.158V104.666C118.738 103.99 118.47 103.342 117.992 102.864C117.514 102.386 116.865 102.118 116.19 102.117H70.8099Z" fill="#3F3D56"/>
<path d="M104.122 120.617H82.578C81.7832 120.616 81.0212 120.3 80.4592 119.738C79.8972 119.176 79.581 118.414 79.5801 117.619V116.127C79.581 115.333 79.8972 114.571 80.4592 114.009C81.0212 113.447 81.7832 113.131 82.578 113.13H104.122C104.917 113.131 105.679 113.447 106.241 114.009C106.803 114.571 107.119 115.333 107.12 116.127V117.619C107.119 118.414 106.803 119.176 106.241 119.738C105.679 120.3 104.917 120.616 104.122 120.617Z" fill="black"/>
<path d="M104.272 120.916H82.7277C81.8932 120.915 81.0932 120.583 80.5032 119.993C79.9132 119.403 79.5814 118.603 79.5806 117.769V116.277C79.5816 115.443 79.9135 114.643 80.5036 114.053C81.0938 113.463 81.8938 113.131 82.7284 113.13H104.272C105.107 113.131 105.907 113.463 106.497 114.053C107.087 114.643 107.419 115.443 107.42 116.277V117.769C107.419 118.603 107.087 119.403 106.497 119.993C105.907 120.583 105.107 120.915 104.272 120.916ZM82.7279 113.729C82.0519 113.73 81.4038 113.999 80.9258 114.476C80.4478 114.954 80.1791 115.602 80.1786 116.278V117.77C80.1791 118.446 80.4478 119.094 80.9258 119.572C81.4038 120.05 82.0519 120.318 82.7279 120.319H104.272C104.948 120.318 105.596 120.05 106.074 119.572C106.552 119.094 106.821 118.446 106.821 117.77V116.278C106.821 115.602 106.552 114.954 106.074 114.476C105.596 113.999 104.948 113.73 104.272 113.729H82.7279Z" fill="#3F3D56"/>
<path d="M144.423 67.4205L142.154 69.6887L139.021 71.3087L139.346 74.1168L145.286 73.4688L146.042 71.9569L145.826 70.6608L146.259 68.6086L144.423 67.4205Z" fill="#ED9DA0"/>
<path d="M139.777 73.0367L139.592 70.654L133.188 73.6847C133.188 73.6847 132.692 75.0877 134.236 75.3046C135.78 75.5216 146.043 75.5207 146.043 74.9806C146.043 74.4404 146.324 71.6758 146.324 71.6758L140.102 73.4686L139.778 73.0365L139.777 73.0367Z" fill="#2F2E41"/>
<path d="M152.582 61.1207L154.223 63.8768L155.023 67.3111L157.825 67.6878L158.658 61.7707L157.378 60.6661L156.069 60.5566L154.185 59.6332L152.582 61.1207Z" fill="#ED9DA0"/>
<path d="M156.884 67.0046L154.529 66.5982L155.892 73.5498C155.892 73.5498 157.131 74.3756 157.72 72.9322C158.309 71.4888 160.834 61.5446 160.31 61.4108C159.787 61.2771 157.176 60.3259 157.176 60.3259L157.384 66.7967L156.884 67.0046Z" fill="#2F2E41"/>
<path d="M159.748 9.54527L160.023 16.1499L155.62 16.2581V10.576L159.748 9.54527Z" fill="#ED9DA0"/>
<path d="M168.47 36.8293C168.47 36.8293 170.852 43.0008 169.12 45.4909C167.387 47.9809 159.265 49.3886 159.265 49.3886L155.908 52.5285L147.029 69.6352L141.831 68.4443L149.195 50.9045C149.195 50.9045 153.526 43.8662 155.151 42.8925C156.775 41.9188 159.799 38.2594 159.799 38.2594L168.47 36.8293H168.47Z" fill="#2F2E41"/>
<path d="M153.742 37.3708L150.406 39.7325C150.406 39.7325 138.58 42.8923 142.371 50.2549C146.161 57.6176 151.792 62.9226 151.792 62.9226L156.774 60.1075L148.76 48.8475L162.838 40.2942L153.742 37.3713V37.3708Z" fill="#2F2E41"/>
<path d="M123.421 28.3928C121.854 28.7083 120.745 29.7724 120.946 30.7697C121.147 31.767 122.58 32.3198 124.148 32.0041C124.777 31.8866 125.367 31.6204 125.871 31.2278L132.497 29.8077L131.928 27.1888L125.309 28.441C124.693 28.2744 124.045 28.2579 123.421 28.3928Z" fill="#ED9DA0"/>
<path d="M148.438 45.3099C147.292 46.425 146.939 47.9199 147.649 48.649C148.359 49.3781 149.863 49.0645 151.009 47.9489C151.473 47.5095 151.824 46.9654 152.035 46.3621L156.83 41.5758L154.932 39.6848L150.052 44.3261C149.443 44.5205 148.89 44.8578 148.438 45.3099H148.438Z" fill="#ED9DA0"/>
<path d="M155.095 13.8214H161.834L166.791 17.1778L166.358 30.3867C166.358 30.3867 165.452 33.7036 168.524 36.7748C170.365 38.6153 169.715 39.6977 169.715 39.6977L158.777 40.5628L152.225 38.6688L154.608 32.715L154.175 30.8745C154.175 30.8745 149.735 27.7344 150.493 24.4864C151.251 21.2385 152.225 14.5252 152.225 14.5252L155.095 13.8214Z" fill="#E6E6E6"/>
<path d="M159.806 33.2565L164.68 17.2325C164.68 17.2325 167.17 16.3673 168.253 18.5317C169.336 20.696 167.974 28.9797 167.974 28.9797L162.297 38.3452L153.201 45.2746L150.926 42.7843L159.806 33.2565Z" fill="#E6E6E6"/>
<path d="M139.241 24.992L152.313 14.5182C152.313 14.5182 154.858 15.2094 154.529 17.608C154.199 20.0067 148.397 26.0727 148.397 26.0727L138.423 30.5974L127.001 31.182L126.531 27.8429L139.241 24.9927V24.992Z" fill="#E6E6E6"/>
<path d="M156.612 12.6309C159.124 12.6309 161.16 10.595 161.16 8.08359C161.16 5.57216 159.124 3.53625 156.612 3.53625C154.1 3.53625 152.063 5.57216 152.063 8.08359C152.063 10.595 154.1 12.6309 156.612 12.6309Z" fill="#ED9DA0"/>
<path d="M158.943 0.470483C158.943 0.470483 160.767 -0.845991 162.387 1.99039C163.494 3.92722 164.081 7.61265 164.342 9.75361C164.401 10.2347 164.309 10.7221 164.081 11.1496C163.853 11.577 163.498 11.9238 163.066 12.1427L157.322 15.0534C157.322 15.0534 159.449 6.95184 156.512 5.73661C153.574 4.52139 153.675 4.82467 153.675 4.82467C153.675 4.82467 151.346 9.8883 154.385 12.116L151.853 13.7372C151.853 13.7372 150.13 4.21788 153.271 2.39492C156.411 0.571966 155.702 -0.744508 158.943 0.470717V0.470483Z" fill="#2F2E41"/>
<path d="M120.273 28.3384C119.637 28.3829 119.028 28.6152 118.524 29.0057C118.02 29.3962 117.643 29.9274 117.44 30.5322C117.238 31.137 117.22 31.7882 117.388 32.4035C117.556 33.0187 117.902 33.5704 118.384 33.9887C118.865 34.407 119.46 34.6732 120.093 34.7536C120.725 34.834 121.368 34.7249 121.939 34.4403C122.509 34.1556 122.983 33.7081 123.299 33.1544C123.616 32.6006 123.761 31.9655 123.716 31.3293C123.656 30.4763 123.26 29.682 122.614 29.1211C121.969 28.5602 121.127 28.2786 120.273 28.3384ZM120.574 32.627C120.362 32.6418 120.151 32.5935 119.966 32.4881C119.781 32.3826 119.632 32.2248 119.537 32.0346C119.442 31.8444 119.406 31.6303 119.433 31.4195C119.46 31.2086 119.548 31.0104 119.688 30.85C119.827 30.6895 120.011 30.574 120.216 30.5181C120.421 30.4621 120.638 30.4682 120.84 30.5356C121.042 30.603 121.219 30.7287 121.349 30.8967C121.479 31.0648 121.557 31.2677 121.571 31.4797C121.581 31.6205 121.563 31.7618 121.519 31.8957C121.474 32.0295 121.403 32.1533 121.311 32.2598C121.218 32.3663 121.105 32.4536 120.979 32.5166C120.853 32.5796 120.715 32.6171 120.574 32.627Z" fill="black"/>
<path d="M112.725 25.839C112.745 25.5334 112.885 25.248 113.113 25.0439L114.52 23.6844C114.632 23.5842 114.762 23.5075 114.904 23.4588C115.045 23.4101 115.195 23.3904 115.345 23.4008C115.494 23.4112 115.64 23.4515 115.773 23.5194C115.907 23.5874 116.026 23.6814 116.122 23.796L120.329 28.7467C120.527 28.9813 120.625 29.2834 120.604 29.5892C120.582 29.895 120.443 30.1806 120.215 30.3855C120.103 30.4856 119.973 30.5623 119.831 30.611C119.69 30.6597 119.54 30.6795 119.39 30.6691C119.241 30.6586 119.095 30.6183 118.962 30.5504C118.828 30.4825 118.71 30.3884 118.613 30.2738L115.563 25.9372L114.601 26.7941C114.433 26.9447 114.224 27.0411 114 27.0706C113.777 27.1 113.55 27.0612 113.349 26.9591C113.146 26.8542 112.979 26.6921 112.868 26.4929C112.757 26.2938 112.707 26.0664 112.725 25.839Z" fill="black"/>
<path d="M117.28 26.3042C117.04 26.3208 116.815 26.4317 116.656 26.6128L115.384 28.0589C115.232 28.2395 115.157 28.473 115.176 28.7085C115.195 28.944 115.307 29.1624 115.487 29.316C115.667 29.4706 115.901 29.5492 116.139 29.5353C116.376 29.5215 116.599 29.4162 116.761 29.2416L118.032 27.7958C118.15 27.6619 118.226 27.4957 118.249 27.3185C118.272 27.1414 118.241 26.9614 118.161 26.8018C118.08 26.6413 117.953 26.5084 117.796 26.4199C117.639 26.3313 117.46 26.2911 117.28 26.3042Z" fill="black"/>
<path d="M93.5002 81.6387C98.4105 81.6387 102.391 77.659 102.391 72.7498C102.391 67.8406 98.4105 63.8609 93.5002 63.8609C88.5899 63.8609 84.6094 67.8406 84.6094 72.7498C84.6094 77.659 88.5899 81.6387 93.5002 81.6387Z" fill="black"/>
<path d="M93.5044 69.6686C93.8765 69.6686 94.2335 69.8164 94.4967 70.0795C94.7598 70.3426 94.9077 70.6995 94.9077 71.0716V74.581C94.9077 74.953 94.7598 75.3099 94.4967 75.573C94.2335 75.8361 93.8765 75.9839 93.5044 75.9839C93.1322 75.9839 92.7753 75.8361 92.5121 75.573C92.2489 75.3099 92.1011 74.953 92.1011 74.581V71.0716C92.1011 70.6995 92.2489 70.3426 92.5121 70.0795C92.7753 69.8164 93.1322 69.6686 93.5044 69.6686Z" fill="white"/>
</g>
<defs>
<clipPath id="clip0_55_31">
<rect width="187" height="139" fill="white"/>
</clipPath>
</defs>
</svg>
