<svg width="26" height="26" viewBox="0 0 26 26" fill="none" xmlns="http://www.w3.org/2000/svg">
<g clip-path="url(#clip0_76_756)">
<path d="M26 0H0V26H26V0Z" fill="white"/>
<path fill-rule="evenodd" clip-rule="evenodd" d="M7.85408 2.58683C9.26102 2.27415 10.9678 2.16669 12.9998 2.16669C15.0318 2.16669 16.7386 2.27415 18.1456 2.58683C19.5648 2.90224 20.7444 3.44069 21.6518 4.34807C22.5592 5.25544 23.0976 6.43504 23.4131 7.85426C23.7257 9.2612 23.8332 10.968 23.8332 13C23.8332 15.032 23.7257 16.7388 23.4131 18.1457C23.0976 19.565 22.5592 20.7446 21.6518 21.652C20.7444 22.5594 19.5648 23.0978 18.1456 23.4132C16.7386 23.7259 15.0318 23.8334 12.9998 23.8334C10.9678 23.8334 9.26102 23.7259 7.85408 23.4132C6.43486 23.0978 5.25526 22.5594 4.34788 21.652C3.4405 20.7446 2.90205 19.565 2.58664 18.1457C2.27397 16.7388 2.1665 15.032 2.1665 13C2.1665 10.968 2.27397 9.2612 2.58664 7.85426C2.90205 6.43504 3.4405 5.25544 4.34788 4.34807C5.25526 3.44069 6.43486 2.90224 7.85408 2.58683ZM7.58317 13C7.58317 12.4017 8.0682 11.9167 8.6665 11.9167H8.67734C9.27564 11.9167 9.76067 12.4017 9.76067 13C9.76067 13.5983 9.27564 14.0834 8.67734 14.0834H8.6665C8.0682 14.0834 7.58317 13.5983 7.58317 13ZM11.9165 13C11.9165 12.4017 12.4015 11.9167 12.9998 11.9167H13.0107C13.609 11.9167 14.094 12.4017 14.094 13C14.094 13.5983 13.609 14.0834 13.0107 14.0834H12.9998C12.4015 14.0834 11.9165 13.5983 11.9165 13ZM17.3332 11.9167C16.7348 11.9167 16.2498 12.4017 16.2498 13C16.2498 13.5983 16.7348 14.0834 17.3332 14.0834H17.344C17.9423 14.0834 18.4273 13.5983 18.4273 13C18.4273 12.4017 17.9423 11.9167 17.344 11.9167H17.3332Z" fill="#323232"/>
</g>
<defs>
<clipPath id="clip0_76_756">
<rect width="26" height="26" fill="white"/>
</clipPath>
</defs>
</svg>
