<svg width="26" height="26" viewBox="0 0 26 26" fill="none" xmlns="http://www.w3.org/2000/svg">
<g clip-path="url(#clip0_76_759)">
<path d="M26 0H0V26H26V0Z" fill="white"/>
<path fill-rule="evenodd" clip-rule="evenodd" d="M7.85408 2.58683C9.26101 2.27415 10.9678 2.16669 12.9998 2.16669C15.0318 2.16669 16.7386 2.27415 18.1456 2.58683C19.5648 2.90224 20.7444 3.44069 21.6518 4.34806C22.5592 5.25544 23.0976 6.43504 23.4131 7.85426C23.7257 9.2612 23.8332 10.968 23.8332 13C23.8332 15.032 23.7257 16.7388 23.4131 18.1457C23.0976 19.565 22.5592 20.7446 21.6518 21.652C20.7444 22.5594 19.5648 23.0978 18.1456 23.4132C16.7386 23.7259 15.0318 23.8334 12.9998 23.8334C10.9678 23.8334 9.26101 23.7259 7.85408 23.4132C6.43486 23.0978 5.25526 22.5594 4.34788 21.652C3.4405 20.7446 2.90205 19.565 2.58664 18.1457C2.27397 16.7388 2.1665 15.032 2.1665 13C2.1665 10.968 2.27397 9.2612 2.58664 7.85426C2.90205 6.43504 3.4405 5.25544 4.34788 4.34806C5.25526 3.44069 6.43486 2.90224 7.85408 2.58683ZM9.74984 12.4584C9.74984 10.9626 10.9624 9.75002 12.4582 9.75002C13.9539 9.75002 15.1665 10.9626 15.1665 12.4584C15.1665 13.9541 13.9539 15.1667 12.4582 15.1667C10.9624 15.1667 9.74984 13.9541 9.74984 12.4584ZM12.4582 7.58335C9.76578 7.58335 7.58317 9.76597 7.58317 12.4584C7.58317 15.1508 9.76578 17.3334 12.4582 17.3334C13.412 17.3334 14.302 17.0594 15.0535 16.5859L16.5671 18.0994C16.9902 18.5224 17.6762 18.5224 18.0992 18.0994C18.5222 17.6763 18.5222 16.9904 18.0992 16.5673L16.5857 15.0537C17.0592 14.3022 17.3332 13.4122 17.3332 12.4584C17.3332 9.76597 15.1506 7.58335 12.4582 7.58335Z" fill="#323232"/>
</g>
<defs>
<clipPath id="clip0_76_759">
<rect width="26" height="26" fill="white"/>
</clipPath>
</defs>
</svg>
