<svg width="141" height="98" viewBox="0 0 141 98" fill="none" xmlns="http://www.w3.org/2000/svg">
<g clip-path="url(#clip0_55_68)">
<path d="M138.599 0H2.40096C1.75895 0.00627849 1.14562 0.26849 0.695524 0.729115C0.245431 1.18974 -0.00468111 1.81116 6.63708e-05 2.45706V95.5481C-0.0036479 96.1932 0.24696 96.8135 0.696978 97.2731C1.14699 97.7326 1.75973 97.994 2.40096 98H138.599C139.24 97.994 139.853 97.7326 140.303 97.273C140.753 96.8134 141.004 96.1932 141 95.5481V2.45706C141.005 1.81122 140.755 1.18985 140.305 0.729239C139.855 0.268624 139.241 0.00637185 138.599 0H138.599Z" fill="#090814"/>
<path d="M134.662 0.561386H2.63371C2.01593 0.562561 1.42385 0.810254 0.987397 1.25011C0.55094 1.68996 0.305756 2.28605 0.305664 2.90756V91.8018C0.30655 92.4227 0.552115 93.0179 0.988517 93.4569C1.42492 93.8959 2.01655 94.143 2.63371 94.1439H134.662C135.279 94.143 135.871 93.8959 136.307 93.4569C136.744 93.0179 136.989 92.4227 136.99 91.8018V2.90774C136.99 2.28646 136.745 1.69056 136.309 1.25073C135.873 0.81091 135.281 0.563065 134.664 0.561562L134.662 0.561386Z" fill="white"/>
<path d="M2.42256 0.561386H134.874C135.436 0.561386 135.974 0.785709 136.371 1.18501C136.768 1.5843 136.991 2.12587 136.991 2.69056V42.6126H0.306152V2.69056C0.306152 2.12587 0.52913 1.5843 0.926034 1.18501C1.32294 0.785709 1.86125 0.561386 2.42256 0.561386Z" fill="black"/>
<path d="M68.7365 8.90065C71.248 8.90065 73.7032 9.64989 75.7914 11.0536C77.8797 12.4574 79.5073 14.4526 80.4684 16.7869C81.4295 19.1212 81.681 21.6899 81.191 24.168C80.701 26.6461 79.4916 28.9224 77.7157 30.709C75.9398 32.4956 73.6771 33.7123 71.2139 34.2053C68.7506 34.6982 66.1974 34.4452 63.877 33.4783C61.5567 32.5114 59.5735 30.874 58.1782 28.7731C56.7828 26.6723 56.0381 24.2024 56.0381 21.6757C56.0381 18.2875 57.376 15.0382 59.7574 12.6424C62.1388 10.2466 65.3687 8.90065 68.7365 8.90065Z" fill="white"/>
<path d="M68.7367 12.0944C66.8531 12.0944 65.0118 12.6563 63.4456 13.7091C61.8794 14.7619 60.6587 16.2583 59.9379 18.0091C59.217 19.7598 59.0284 21.6863 59.3959 23.5449C59.7634 25.4035 60.6704 27.1107 62.0024 28.4507C63.3343 29.7906 65.0313 30.7032 66.8787 31.0729C68.7262 31.4426 70.6411 31.2528 72.3813 30.5276C74.1216 29.8025 75.609 28.5744 76.6555 26.9988C77.702 25.4231 78.2606 23.5707 78.2606 21.6757C78.2606 19.1346 77.2572 16.6975 75.4711 14.9007C73.685 13.1039 71.2626 12.0944 68.7367 12.0944ZM68.7367 14.9688C69.3018 14.9688 69.8542 15.1374 70.3241 15.4532C70.7939 15.7691 71.1601 16.218 71.3764 16.7432C71.5926 17.2684 71.6492 17.8464 71.539 18.4039C71.4287 18.9615 71.1566 19.4737 70.757 19.8757C70.3575 20.2777 69.8484 20.5514 69.2941 20.6623C68.7399 20.7732 68.1654 20.7163 67.6433 20.4988C67.1213 20.2812 66.675 19.9128 66.3611 19.4401C66.0471 18.9674 65.8796 18.4117 65.8796 17.8432C65.8796 17.0808 66.1806 16.3497 66.7164 15.8107C67.2522 15.2716 67.979 14.9688 68.7367 14.9688ZM68.7367 28.8065C67.608 28.8013 66.4976 28.5191 65.5019 27.9845C64.5061 27.4499 63.655 26.6789 63.0224 25.7385C63.0681 23.8223 66.832 22.7674 68.7367 22.7674C70.6415 22.7674 74.4053 23.8221 74.451 25.7383C73.8177 26.678 72.9665 27.4483 71.9708 27.9828C70.9752 28.5172 69.8652 28.7997 68.7367 28.8058V28.8065Z" fill="black"/>
<path d="M48.9832 49.0001H88.4895C88.8637 49.0001 89.2226 49.1496 89.4872 49.4158C89.7518 49.682 89.9004 50.0431 89.9004 50.4195V53.2584C89.9004 53.6349 89.7518 53.9959 89.4872 54.2621C89.2226 54.5283 88.8637 54.6779 88.4895 54.6779H48.9832C48.609 54.6779 48.2501 54.5283 47.9855 54.2621C47.7209 53.9959 47.5723 53.6349 47.5723 53.2584V50.4195C47.5723 50.0431 47.7209 49.682 47.9855 49.4158C48.2501 49.1496 48.609 49.0001 48.9832 49.0001Z" fill="black"/>
<path d="M14.4153 61.0654H25.7028C26.077 61.0654 26.4359 61.2149 26.7005 61.4811C26.9651 61.7473 27.1138 62.1084 27.1138 62.4848V73.8404C27.1138 74.2169 26.9651 74.5779 26.7005 74.8441C26.4359 75.1103 26.077 75.2599 25.7028 75.2599H14.4153C14.0411 75.2599 13.6823 75.1103 13.4176 74.8441C13.153 74.5779 13.0044 74.2169 13.0044 73.8404V62.4848C13.0044 62.1084 13.153 61.7473 13.4176 61.4811C13.6823 61.2149 14.0411 61.0654 14.4153 61.0654Z" fill="#E6E6E6"/>
<path d="M62.0343 61.0654H123.41C123.691 61.0654 123.96 61.1776 124.158 61.3772C124.357 61.5769 124.468 61.8476 124.468 62.13V64.2592C124.468 64.5415 124.357 64.8123 124.158 65.0119C123.96 65.2116 123.691 65.3237 123.41 65.3237H62.0343C61.7536 65.3237 61.4845 65.2116 61.286 65.0119C61.0876 64.8123 60.9761 64.5415 60.9761 64.2592V62.13C60.9761 61.8476 61.0876 61.5769 61.286 61.3772C61.4845 61.1776 61.7536 61.0654 62.0343 61.0654Z" fill="#E6E6E6"/>
<path d="M62.0343 75.2599H123.41C123.691 75.2599 123.96 75.372 124.158 75.5717C124.357 75.7713 124.468 76.0421 124.468 76.3245V78.4536C124.468 78.736 124.357 79.0068 124.158 79.2064C123.96 79.4061 123.691 79.5182 123.41 79.5182H62.0343C61.7536 79.5182 61.4845 79.4061 61.286 79.2064C61.0876 79.0068 60.9761 78.736 60.9761 78.4536V76.3245C60.9761 76.0421 61.0876 75.7713 61.286 75.5717C61.4845 75.372 61.7536 75.2599 62.0343 75.2599Z" fill="#E6E6E6"/>
<path d="M62.0343 68.1626H123.41C123.691 68.1626 123.96 68.2748 124.158 68.4745C124.357 68.6741 124.468 68.9449 124.468 69.2272V71.3564C124.468 71.6387 124.357 71.9095 124.158 72.1092C123.96 72.3088 123.691 72.421 123.41 72.421H62.0343C61.7536 72.421 61.4845 72.3088 61.286 72.1092C61.0876 71.9095 60.9761 71.6387 60.9761 71.3564V69.2272C60.9761 68.9449 61.0876 68.6741 61.286 68.4745C61.4845 68.2748 61.7536 68.1626 62.0343 68.1626Z" fill="#E6E6E6"/>
<path d="M34.8739 61.0654H54.6271C54.8142 61.0654 54.9936 61.1402 55.1259 61.2733C55.2582 61.4064 55.3325 61.5869 55.3325 61.7751V64.614C55.3325 64.8023 55.2582 64.9828 55.1259 65.1159C54.9936 65.249 54.8142 65.3237 54.6271 65.3237H34.8739C34.6868 65.3237 34.5074 65.249 34.3751 65.1159C34.2428 64.9828 34.1685 64.8023 34.1685 64.614V61.7751C34.1685 61.5869 34.2428 61.4064 34.3751 61.2733C34.5074 61.1402 34.6868 61.0654 34.8739 61.0654Z" fill="#E6E6E6"/>
<path d="M34.8739 68.1626H54.6271C54.8142 68.1626 54.9936 68.2374 55.1259 68.3705C55.2582 68.5036 55.3325 68.6841 55.3325 68.8724V71.7113C55.3325 71.8995 55.2582 72.08 55.1259 72.2131C54.9936 72.3462 54.8142 72.421 54.6271 72.421H34.8739C34.6868 72.421 34.5074 72.3462 34.3751 72.2131C34.2428 72.08 34.1685 71.8995 34.1685 71.7113V68.8724C34.1685 68.6841 34.2428 68.5036 34.3751 68.3705C34.5074 68.2374 34.6868 68.1626 34.8739 68.1626Z" fill="#E6E6E6"/>
<path d="M34.8739 75.2599H54.6271C54.8142 75.2599 54.9936 75.3347 55.1259 75.4678C55.2582 75.6009 55.3325 75.7814 55.3325 75.9696V78.8085C55.3325 78.9967 55.2582 79.1773 55.1259 79.3104C54.9936 79.4435 54.8142 79.5182 54.6271 79.5182H34.8739C34.6868 79.5182 34.5074 79.4435 34.3751 79.3104C34.2428 79.1773 34.1685 78.9967 34.1685 78.8085V75.9696C34.1685 75.7814 34.2428 75.6009 34.3751 75.4678C34.5074 75.3347 34.6868 75.2599 34.8739 75.2599Z" fill="#E6E6E6"/>
<path d="M111.947 83.2443H123.058C123.432 83.2443 123.791 83.3938 124.055 83.66C124.32 83.9262 124.469 84.2873 124.469 84.6637V87.5026C124.469 87.8791 124.32 88.2401 124.055 88.5063C123.791 88.7725 123.432 88.9221 123.058 88.9221H111.947C111.572 88.9221 111.214 88.7725 110.949 88.5063C110.684 88.2401 110.536 87.8791 110.536 87.5026V84.6637C110.536 84.2873 110.684 83.9262 110.949 83.66C111.214 83.3938 111.572 83.2443 111.947 83.2443Z" fill="black"/>
</g>
<defs>
<clipPath id="clip0_55_68">
<rect width="141" height="98" fill="white"/>
</clipPath>
</defs>
</svg>
